<mxfile host="Electron" modified="2024-01-29T09:05:40.546Z" agent="Mozilla/5.0 (Windows NT 10.0; Win64; x64) AppleWebKit/537.36 (KHTML, like Gecko) draw.io/23.0.2 Chrome/120.0.6099.109 Electron/28.1.0 Safari/537.36" etag="DiKHd_Oq4A_nJGV0LBAa" version="23.0.2" type="device">
  <diagram name="Страница — 1" id="iB6o7KlJWZsh2B4Li99O">
    <mxGraphModel dx="963" dy="828" grid="1" gridSize="10" guides="1" tooltips="1" connect="1" arrows="1" fold="1" page="1" pageScale="1" pageWidth="827" pageHeight="1169" math="0" shadow="0">
      <root>
        <mxCell id="0" />
        <mxCell id="1" parent="0" />
        <mxCell id="Xi980wBjf9_HKw8FYEeJ-5" style="edgeStyle=orthogonalEdgeStyle;rounded=0;orthogonalLoop=1;jettySize=auto;html=1;exitX=0.5;exitY=1;exitDx=0;exitDy=0;entryX=0.5;entryY=0;entryDx=0;entryDy=0;" edge="1" parent="1" source="Xi980wBjf9_HKw8FYEeJ-1" target="Xi980wBjf9_HKw8FYEeJ-4">
          <mxGeometry relative="1" as="geometry" />
        </mxCell>
        <mxCell id="Xi980wBjf9_HKw8FYEeJ-1" value="начало" style="rounded=1;whiteSpace=wrap;html=1;arcSize=50;" vertex="1" parent="1">
          <mxGeometry x="10" y="10" width="100" height="50" as="geometry" />
        </mxCell>
        <mxCell id="Xi980wBjf9_HKw8FYEeJ-8" style="edgeStyle=orthogonalEdgeStyle;rounded=0;orthogonalLoop=1;jettySize=auto;html=1;exitX=0.5;exitY=1;exitDx=0;exitDy=0;entryX=0.5;entryY=0;entryDx=0;entryDy=0;" edge="1" parent="1" source="Xi980wBjf9_HKw8FYEeJ-2" target="Xi980wBjf9_HKw8FYEeJ-7">
          <mxGeometry relative="1" as="geometry" />
        </mxCell>
        <mxCell id="Xi980wBjf9_HKw8FYEeJ-2" value="t=5&lt;br&gt;n=1&lt;br&gt;step=1*t&lt;br&gt;i=1&lt;br&gt;x=15&lt;br&gt;y=15" style="rounded=0;whiteSpace=wrap;html=1;" vertex="1" parent="1">
          <mxGeometry x="10" y="150" width="100" height="90" as="geometry" />
        </mxCell>
        <mxCell id="Xi980wBjf9_HKw8FYEeJ-6" style="edgeStyle=orthogonalEdgeStyle;rounded=0;orthogonalLoop=1;jettySize=auto;html=1;exitX=0.5;exitY=1;exitDx=0;exitDy=0;entryX=0.5;entryY=0;entryDx=0;entryDy=0;" edge="1" parent="1" source="Xi980wBjf9_HKw8FYEeJ-4" target="Xi980wBjf9_HKw8FYEeJ-2">
          <mxGeometry relative="1" as="geometry" />
        </mxCell>
        <mxCell id="Xi980wBjf9_HKw8FYEeJ-4" value="установка размеров окна 500 на 500" style="shape=parallelogram;perimeter=parallelogramPerimeter;whiteSpace=wrap;html=1;fixedSize=1;" vertex="1" parent="1">
          <mxGeometry x="10" y="80" width="100" height="50" as="geometry" />
        </mxCell>
        <mxCell id="Xi980wBjf9_HKw8FYEeJ-10" style="edgeStyle=orthogonalEdgeStyle;rounded=0;orthogonalLoop=1;jettySize=auto;html=1;exitX=0.5;exitY=1;exitDx=0;exitDy=0;entryX=0.5;entryY=0;entryDx=0;entryDy=0;" edge="1" parent="1" source="Xi980wBjf9_HKw8FYEeJ-7" target="Xi980wBjf9_HKw8FYEeJ-9">
          <mxGeometry relative="1" as="geometry" />
        </mxCell>
        <mxCell id="Xi980wBjf9_HKw8FYEeJ-7" value="блокировка рисования" style="rounded=0;whiteSpace=wrap;html=1;" vertex="1" parent="1">
          <mxGeometry x="10" y="260" width="100" height="50" as="geometry" />
        </mxCell>
        <mxCell id="Xi980wBjf9_HKw8FYEeJ-12" style="edgeStyle=orthogonalEdgeStyle;rounded=0;orthogonalLoop=1;jettySize=auto;html=1;exitX=0.5;exitY=1;exitDx=0;exitDy=0;entryX=0.5;entryY=0;entryDx=0;entryDy=0;" edge="1" parent="1" source="Xi980wBjf9_HKw8FYEeJ-9" target="Xi980wBjf9_HKw8FYEeJ-13">
          <mxGeometry relative="1" as="geometry">
            <mxPoint x="60" y="400" as="targetPoint" />
          </mxGeometry>
        </mxCell>
        <mxCell id="Xi980wBjf9_HKw8FYEeJ-9" value="переместить курсор в точку&lt;br&gt;x , y" style="shape=parallelogram;perimeter=parallelogramPerimeter;whiteSpace=wrap;html=1;fixedSize=1;" vertex="1" parent="1">
          <mxGeometry x="10" y="330" width="100" height="50" as="geometry" />
        </mxCell>
        <mxCell id="Xi980wBjf9_HKw8FYEeJ-15" style="edgeStyle=orthogonalEdgeStyle;rounded=0;orthogonalLoop=1;jettySize=auto;html=1;exitX=0.5;exitY=1;exitDx=0;exitDy=0;entryX=0.5;entryY=0;entryDx=0;entryDy=0;" edge="1" parent="1" source="Xi980wBjf9_HKw8FYEeJ-13" target="Xi980wBjf9_HKw8FYEeJ-14">
          <mxGeometry relative="1" as="geometry" />
        </mxCell>
        <mxCell id="Xi980wBjf9_HKw8FYEeJ-13" value="Ввод:&lt;br&gt;n,-1" style="shape=parallelogram;perimeter=parallelogramPerimeter;whiteSpace=wrap;html=1;fixedSize=1;" vertex="1" parent="1">
          <mxGeometry x="10" y="400" width="100" height="50" as="geometry" />
        </mxCell>
        <mxCell id="Xi980wBjf9_HKw8FYEeJ-17" style="edgeStyle=orthogonalEdgeStyle;rounded=0;orthogonalLoop=1;jettySize=auto;html=1;exitX=0.5;exitY=1;exitDx=0;exitDy=0;entryX=0.5;entryY=0;entryDx=0;entryDy=0;" edge="1" parent="1" source="Xi980wBjf9_HKw8FYEeJ-14" target="Xi980wBjf9_HKw8FYEeJ-16">
          <mxGeometry relative="1" as="geometry" />
        </mxCell>
        <mxCell id="Xi980wBjf9_HKw8FYEeJ-14" value="Fractal" style="shape=process;whiteSpace=wrap;html=1;backgroundOutline=1;" vertex="1" parent="1">
          <mxGeometry x="10" y="470" width="100" height="50" as="geometry" />
        </mxCell>
        <mxCell id="Xi980wBjf9_HKw8FYEeJ-28" style="edgeStyle=orthogonalEdgeStyle;rounded=0;orthogonalLoop=1;jettySize=auto;html=1;exitX=0.5;exitY=1;exitDx=0;exitDy=0;entryX=0.5;entryY=0;entryDx=0;entryDy=0;" edge="1" parent="1" source="Xi980wBjf9_HKw8FYEeJ-16" target="Xi980wBjf9_HKw8FYEeJ-27">
          <mxGeometry relative="1" as="geometry" />
        </mxCell>
        <mxCell id="Xi980wBjf9_HKw8FYEeJ-16" value="перерисовать содержимое экрана" style="shape=parallelogram;perimeter=parallelogramPerimeter;whiteSpace=wrap;html=1;fixedSize=1;size=20;" vertex="1" parent="1">
          <mxGeometry x="10" y="540" width="100" height="50" as="geometry" />
        </mxCell>
        <mxCell id="Xi980wBjf9_HKw8FYEeJ-21" style="edgeStyle=orthogonalEdgeStyle;rounded=0;orthogonalLoop=1;jettySize=auto;html=1;exitX=0.5;exitY=1;exitDx=0;exitDy=0;entryX=0.5;entryY=0;entryDx=0;entryDy=0;" edge="1" parent="1" source="Xi980wBjf9_HKw8FYEeJ-18" target="Xi980wBjf9_HKw8FYEeJ-20">
          <mxGeometry relative="1" as="geometry" />
        </mxCell>
        <mxCell id="Xi980wBjf9_HKw8FYEeJ-18" value="keydown" style="shape=process;whiteSpace=wrap;html=1;backgroundOutline=1;" vertex="1" parent="1">
          <mxGeometry x="10" y="680" width="100" height="50" as="geometry" />
        </mxCell>
        <mxCell id="Xi980wBjf9_HKw8FYEeJ-20" value="конец" style="rounded=1;whiteSpace=wrap;html=1;arcSize=50;" vertex="1" parent="1">
          <mxGeometry x="10" y="750" width="100" height="50" as="geometry" />
        </mxCell>
        <mxCell id="Xi980wBjf9_HKw8FYEeJ-23" value="" style="endArrow=none;dashed=1;html=1;rounded=0;exitX=1;exitY=0.5;exitDx=0;exitDy=0;entryX=0;entryY=0.5;entryDx=0;entryDy=0;entryPerimeter=0;" edge="1" parent="1" source="Xi980wBjf9_HKw8FYEeJ-18" target="Xi980wBjf9_HKw8FYEeJ-24">
          <mxGeometry width="50" height="50" relative="1" as="geometry">
            <mxPoint x="220" y="710" as="sourcePoint" />
            <mxPoint x="160" y="705" as="targetPoint" />
          </mxGeometry>
        </mxCell>
        <mxCell id="Xi980wBjf9_HKw8FYEeJ-24" value="" style="strokeWidth=2;html=1;shape=mxgraph.flowchart.annotation_1;align=left;pointerEvents=1;" vertex="1" parent="1">
          <mxGeometry x="160" y="682.5" width="10" height="45" as="geometry" />
        </mxCell>
        <mxCell id="Xi980wBjf9_HKw8FYEeJ-25" value="при нажатии клавиши запускаеться процедура" style="text;html=1;strokeColor=none;fillColor=none;align=center;verticalAlign=middle;whiteSpace=wrap;rounded=0;" vertex="1" parent="1">
          <mxGeometry x="160" y="690" width="90" height="30" as="geometry" />
        </mxCell>
        <mxCell id="Xi980wBjf9_HKw8FYEeJ-29" style="edgeStyle=orthogonalEdgeStyle;rounded=0;orthogonalLoop=1;jettySize=auto;html=1;exitX=0.5;exitY=1;exitDx=0;exitDy=0;entryX=0.5;entryY=0;entryDx=0;entryDy=0;" edge="1" parent="1" source="Xi980wBjf9_HKw8FYEeJ-27" target="Xi980wBjf9_HKw8FYEeJ-18">
          <mxGeometry relative="1" as="geometry" />
        </mxCell>
        <mxCell id="Xi980wBjf9_HKw8FYEeJ-27" value="ввод:&lt;br&gt;нажатие клавиши" style="shape=parallelogram;perimeter=parallelogramPerimeter;whiteSpace=wrap;html=1;fixedSize=1;" vertex="1" parent="1">
          <mxGeometry x="10" y="610" width="100" height="50" as="geometry" />
        </mxCell>
      </root>
    </mxGraphModel>
  </diagram>
</mxfile>
